<?xml version="1.0" encoding="UTF-8"?>
<svg width="150px" height="50px" viewBox="0 0 150 50" version="1.1" xmlns="http://www.w3.org/2000/svg" xmlns:xlink="http://www.w3.org/1999/xlink">
    <!-- Generator: Sketch 48.1 (47250) - http://www.bohemiancoding.com/sketch -->
    <title>Download_on_the_App_Store_Badge_RU_RGB_blk_100317</title>
    <desc>Created with Sketch.</desc>
    <defs></defs>
    <g id="Desktop" stroke="none" stroke-width="1" fill="none" fill-rule="evenodd" transform="translate(-34.000000, -510.000000)">
        <g id="Group-12" transform="translate(32.000000, 161.000000)" fill-rule="nonzero">
            <g id="Group-3" transform="translate(2.000000, 349.000000)">
                <g id="Download_on_the_App_Store_Badge_RU_RGB_blk_100317">
                    <g id="Group">
                        <g id="Shape">
                            <path d="M137.735782,8.13151629e-20 L11.924178,8.13151629e-20 C11.4655789,8.13151629e-20 11.0124824,8.13151629e-20 10.5550964,0.0025 C10.1722218,0.005 9.79239862,0.0122625 9.40584719,0.018375 C8.56607884,0.0282522545 7.72828535,0.102095325 6.89974731,0.2392625 C6.07237303,0.379415785 5.27091685,0.643644675 4.5224854,1.0230125 C3.77496931,1.40558964 3.09194249,1.90270941 2.49818351,2.4963375 C1.9013074,3.08829624 1.40376508,3.77252047 1.02468833,4.5227 C0.644565339,5.2713864 0.380986833,6.07367287 0.243056296,6.90185 C0.103814417,7.72898113 0.0288870946,8.56565068 0.0189467604,9.40435 C0.00734108802,9.7876 0.006115489,10.172125 0,10.555425 L0,39.44825 C0.006115489,39.836375 0.00734108802,40.212375 0.0189467604,40.600625 C0.0288901428,41.4392827 0.103817466,42.2759105 0.243056296,43.103 C0.380605966,43.9316613 0.644200056,44.7344083 1.02468833,45.483375 C1.40359296,46.2311286 1.90120525,46.9125828 2.49818351,47.50125 C3.08969114,48.0975176 3.77315946,48.5949755 4.5224854,48.974625 C5.27091117,49.3550082 6.07228093,49.6208098 6.89974731,49.763125 C7.7284262,49.8991934 8.56613353,49.9730665 9.40584719,49.984125 C9.79239862,49.992625 10.1722218,49.9975 10.5550964,49.9975 C11.0124699,50 11.4656039,50 11.924178,50 L137.735782,50 C138.185252,50 138.641975,50 139.091445,49.9975 C139.472506,49.9975 139.863322,49.992625 140.244383,49.984125 C141.082509,49.9736546 141.918639,49.8997768 142.745606,49.763125 C143.575741,49.619808 144.379984,49.3540767 145.132022,48.974625 C145.880672,48.5947557 146.56351,48.0973113 147.154511,47.50125 C147.749949,46.9102773 148.248623,46.2293216 148.632233,45.483375 C149.009866,44.7338635 149.270951,43.9311806 149.406486,43.103 C149.545948,42.275797 149.623534,41.4393553 149.6386,40.600625 C149.643477,40.212375 149.643477,39.836375 149.643477,39.44825 C149.653232,38.994125 149.653232,38.5425 149.653232,38.081 L149.653232,11.9201625 C149.653232,11.4624 149.653232,11.0083 149.643477,10.555425 C149.643477,10.172125 149.643477,9.7876 149.6386,9.4043 C149.623537,8.56552806 149.545951,7.72904459 149.406486,6.9018 C149.270573,6.074102 149.009503,5.2718791 148.632233,4.52265 C147.860261,3.0189951 146.636136,1.79503175 145.132022,1.0229 C144.379982,0.644459225 143.575653,0.380300512 142.745606,0.23915 C141.918783,0.101378479 141.082565,0.0275097061 140.244383,0.0182 C139.863322,0.0121 139.472506,0.004775 139.091445,0.0023375 C138.641975,-0.0001625 138.185252,-0.0001625 137.735782,-0.0001625 L137.735782,8.13151629e-20 Z" fill="#F8E71C"></path>
                            <path d="M10.5611994,48.90625 C10.1801631,48.90625 9.80833141,48.901375 9.43028413,48.892875 C8.64712857,48.8826759 7.86580344,48.8145313 7.09271663,48.689 C6.37185217,48.5649102 5.67352829,48.3340806 5.02077895,48.004125 C4.37401497,47.6769033 3.78411422,47.2478411 3.27367504,46.733375 C2.75584735,46.2249691 2.32473215,45.635305 1.99741375,44.98775 C1.66648859,44.3359864 1.43746868,43.6373745 1.31833185,42.91625 C1.18967441,42.1413936 1.12006541,41.3578916 1.11010507,40.5725 C1.1021762,40.308875 1.09179612,39.431125 1.09179612,39.431125 L1.09179612,10.555425 C1.09179612,10.555425 1.10285153,9.6911625 1.1101676,9.43725 C1.11970455,8.65310256 1.18890877,7.87081637 1.31718128,7.0971625 C1.43653802,6.3740626 1.66573523,5.67343608 1.99683847,5.0195375 C2.32295389,4.37242981 2.75167563,3.78232537 3.26638397,3.2721 C3.78051379,2.75702677 4.37230151,2.32575515 5.02016615,1.9940125 C5.67141529,1.665117 6.36841943,1.43591568 7.08782674,1.3140875 C7.8634525,1.18729517 8.64749008,1.11874511 9.43336064,1.1090125 L10.5618122,1.09375 L139.085317,1.09375 L140.22725,1.109625 C141.005972,1.118874 141.782887,1.18681251 142.551386,1.3128625 C143.278076,1.43621884 143.982344,1.66701942 144.641032,1.997675 C145.93894,2.66623256 146.995022,3.72395369 147.661258,5.0225875 C147.987077,5.67197195 148.212739,6.36688345 148.330585,7.0837375 C148.460385,7.86373923 148.53303,8.65217292 148.547942,9.44275 C148.551568,9.79675 148.551568,10.177 148.551568,10.555425 C148.561448,11.024175 148.561448,11.4703375 148.561448,11.9201625 L148.561448,38.081 C148.561448,38.535125 148.561448,38.97825 148.551568,39.425 C148.551568,39.8315 148.551568,40.203875 148.546691,40.587125 C148.532103,41.3635946 148.460669,42.1379553 148.332962,42.904 C148.216267,43.6303264 147.988494,44.3343914 147.657631,44.9915 C147.327999,45.6320264 146.89936,46.2165827 146.387511,46.723625 C145.876612,47.2408558 145.28567,47.6724284 144.637405,48.00175 C143.980542,48.3342421 143.27731,48.5659253 142.551386,48.689 C141.778357,48.8152012 140.996957,48.8833502 140.213743,48.892875 C139.847439,48.901375 139.463877,48.90625 139.091445,48.90625 L137.735782,48.90875 L10.5611994,48.90625 Z" fill="#000000"></path>
                        </g>
                        <g id="_Group_" transform="translate(11.255501, 10.000000)" fill="#FFFFFF">
                            <g id="_Group_2">
                                <g id="_Group_3">
                                    <path d="M19.7207387,15.37585 C19.7480733,13.2552614 20.8603493,11.2964826 22.6678791,10.185775 C21.52241,8.55064096 19.6726052,7.55109794 17.6764895,7.488675 C15.5764131,7.26835 13.5404805,8.7447125 12.47032,8.7447125 C11.3794493,8.7447125 9.73176899,7.51055 7.95748929,7.5470375 C5.62299987,7.62242302 3.49938182,8.91690685 2.36360523,10.956875 C-0.0550769193,15.1424 1.74904236,21.2937125 4.06593726,24.676975 C5.22512883,26.3336625 6.57989098,28.184225 8.35256989,28.1186 C10.0872427,28.0466875 10.7351094,27.013 12.8290078,27.013 C14.9034717,27.013 15.5113063,28.1186 17.3199528,28.076875 C19.1813375,28.046675 20.3540982,26.412825 21.4726199,24.74045 C22.3054972,23.5599996 22.9463948,22.2553449 23.3715731,20.8748125 C21.1608132,19.9402266 19.723319,17.7750429 19.7207387,15.37585 Z" id="_Path_"></path>
                                    <path d="M16.3045315,5.2636125 C17.3194358,4.04585238 17.8194406,2.48062807 17.6983627,0.9003375 C16.1478147,1.06311311 14.7155426,1.80381209 13.6869271,2.97485 C12.6712166,4.13023628 12.15666,5.64179085 12.2565905,7.1765875 C13.8279296,7.19275846 15.3198828,6.48769152 16.3045315,5.2636125 Z" id="_Path_2"></path>
                                </g>
                            </g>
                            <g id="Group" transform="translate(31.265281, 11.250000)">
                                <path d="M10.3829122,12.6745625 L4.46326896,12.6745625 L3.04167414,16.870125 L0.534348667,16.870125 L6.14133913,1.347625 L8.74636236,1.347625 L14.3533528,16.870125 L11.8032689,16.870125 L10.3829122,12.6745625 Z M5.07635611,10.738525 L9.76864951,10.738525 L7.45550644,3.9294375 L7.3907748,3.9294375 L5.07635611,10.738525 Z" id="Shape"></path>
                                <path d="M26.4625463,11.2121625 C26.4625463,14.7290125 24.5793008,16.988525 21.7373368,16.988525 C20.2683504,17.0653308 18.8846455,16.2962884 18.1748081,15.008525 L18.1210318,15.008525 L18.1210318,20.614 L15.7968959,20.614 L15.7968959,5.552975 L18.0465704,5.552975 L18.0465704,7.4353 L18.0893163,7.4353 C18.830689,6.1556099 20.215886,5.38689855 21.6945909,5.4345625 C24.5682579,5.434575 26.4625463,7.705075 26.4625463,11.2121625 Z M24.0736787,11.2121625 C24.0736787,8.9209125 22.8890122,7.41455 21.0814913,7.41455 C19.3057233,7.41455 18.1112895,8.9526375 18.1112895,11.2121625 C18.1112895,13.4924375 19.3057233,15.0195375 21.0814913,15.0195375 C22.8890247,15.0195375 24.0736787,13.524175 24.0736787,11.2121625 Z" id="Shape"></path>
                                <path d="M38.9246873,11.2121625 C38.9246873,14.7290125 37.0414418,16.988525 34.1994778,16.988525 C32.7304914,17.0653308 31.3467865,16.2962884 30.6369491,15.008525 L30.5831728,15.008525 L30.5831728,20.614 L28.2590368,20.614 L28.2590368,5.552975 L30.5086614,5.552975 L30.5086614,7.4353 L30.5514073,7.4353 C31.2927854,6.15561067 32.6779877,5.38690384 34.1566944,5.434575 C37.0304489,5.434575 38.9246873,7.705075 38.9246873,11.2121625 Z M36.5358197,11.2121625 C36.5358197,8.9209125 35.3511532,7.41455 33.5436322,7.41455 C31.7678643,7.41455 30.5734305,8.9526375 30.5734305,11.2121625 C30.5734305,13.4924375 31.7678643,15.0195375 33.5436322,15.0195375 C35.3511657,15.0195375 36.5358322,13.524175 36.5358322,11.2121625 L36.5358197,11.2121625 Z" id="Shape"></path>
                                <path d="M47.1611379,12.5451625 C47.3333471,14.084475 48.8294533,15.0951625 50.87389,15.0951625 C52.83286,15.0951625 54.2422364,14.084425 54.2422364,12.696475 C54.2422364,11.4916375 53.3922084,10.770225 51.3795122,10.275825 L49.366816,9.7912 C46.5150846,9.102725 45.1911876,7.7697125 45.1911876,5.606625 C45.1911876,2.9284 47.5263164,1.0888 50.842137,1.0888 C54.1237409,1.0888 56.373403,2.9284 56.4491275,5.606625 L54.1029808,5.606625 C53.9625372,4.05755 52.681386,3.1225 50.8091334,3.1225 C48.9368808,3.1225 47.6557422,4.06855 47.6557422,5.4455 C47.6557422,6.5429125 48.4740171,7.1886625 50.4757204,7.683 L52.1867567,8.102925 C55.3731266,8.8561 56.6970237,10.135425 56.6970237,12.4059 C56.6970237,15.30995 54.382655,17.1288 50.7016559,17.1288 C47.257585,17.1288 44.932236,15.352675 44.7820126,12.54505 L47.1611379,12.5451625 Z" id="Shape"></path>
                                <path d="M61.7129252,2.87475 L61.7129252,5.552975 L63.8660776,5.552975 L63.8660776,7.392575 L61.7129252,7.392575 L61.7129252,13.6315875 C61.7129252,14.600825 62.1440484,15.0524875 63.0905485,15.0524875 C63.3461628,15.0480324 63.6013634,15.0300908 63.8550847,14.9987375 L63.8550847,16.82735 C63.4295371,16.9068244 62.9970038,16.9428181 62.5641663,16.934775 C60.2717959,16.934775 59.3777964,16.074175 59.3777964,13.87935 L59.3777964,7.392575 L57.7314918,7.392575 L57.7314918,5.552975 L59.3777714,5.552975 L59.3777714,2.87475 L61.7129252,2.87475 Z" id="Shape"></path>
                                <path d="M65.1130746,11.2121625 C65.1130746,7.651375 67.2112626,5.413825 70.4831367,5.413825 C73.7659913,5.413825 75.854412,7.651325 75.854412,11.2121625 C75.854412,14.782725 73.7769841,17.0105 70.4831367,17.0105 C67.1904524,17.0105 65.1130746,14.7827125 65.1130746,11.2121625 Z M73.4863046,11.2121625 C73.4863046,8.7695375 72.3663697,7.3278875 70.4831242,7.3278875 C68.5998788,7.3278875 67.4811695,8.780525 67.4811695,11.2121625 C67.4811695,13.66455 68.5998788,15.095225 70.4831242,15.095225 C72.3663697,15.095225 73.4862545,13.66455 73.4862545,11.2121625 L73.4863046,11.2121625 Z" id="Shape"></path>
                                <path d="M77.770586,5.552975 L79.9872444,5.552975 L79.9872444,7.479225 L80.0410207,7.479225 C80.3501419,6.23921051 81.4868931,5.38578945 82.7645144,5.43455 C83.0323503,5.43361529 83.2994473,5.46268843 83.5608036,5.521225 L83.5608036,7.694075 C83.222677,7.59080415 82.8699529,7.54338911 82.5165432,7.5537 C81.8332695,7.5259943 81.1720121,7.79816841 80.7063978,8.29875747 C80.2407834,8.79934652 80.0173299,9.47833843 80.0947095,10.15745 L80.0947095,16.8701 L77.7705735,16.8701 L77.770586,5.552975 Z" id="Shape"></path>
                                <path d="M94.2764534,13.5461375 C93.9638006,15.600575 91.9620848,17.0104875 89.4010205,17.0104875 C86.1071731,17.0104875 84.0627239,14.804675 84.0627239,11.2658625 C84.0627239,7.7160625 86.118166,5.4138125 89.3033228,5.4138125 C92.4359539,5.4138125 94.4059167,7.5646875 94.4059167,10.9960875 L94.4059167,11.7919875 L86.4088456,11.7919875 L86.4088456,11.9323625 C86.3341808,12.774902 86.6252533,13.6088993 87.2080236,14.2222124 C87.7907938,14.8355255 88.6090928,15.1690416 89.4547718,15.137925 C90.5826259,15.2435495 91.6459716,14.5962221 92.0695748,13.546125 L94.2764534,13.5461375 Z M86.4198164,10.1684625 L92.0805552,10.16845 C92.1227326,9.41137187 91.8470117,8.67102885 91.3198209,8.12578943 C90.7926302,7.58055001 90.0617695,7.27985051 89.3033228,7.2961375 C88.5388764,7.29157779 87.8042785,7.59241829 87.2628074,8.13179156 C86.7213362,8.67116483 86.4178578,9.40437865 86.4198164,10.1684625 Z" id="Shape"></path>
                            </g>
                        </g>
                    </g>
                    <g id="_Group_4" transform="translate(43.771394, 10.000000)" fill="#FFFFFF">
                        <g id="Group">
                            <path d="M2.17393753,4.066775 L3.17173771,4.066775 C3.5189977,4.1099977 3.86852198,4.00613111 4.13575123,3.78030337 C4.40298047,3.55447563 4.56357235,3.22725774 4.57867537,2.8778125 C4.57867537,2.18995 4.06084727,1.7456125 3.18273059,1.7456125 C2.82720656,1.69595965 2.4666975,1.79204782 2.18311481,2.01204478 C1.89953212,2.23204174 1.71695598,2.55726664 1.67686958,2.913825 L0.581334132,2.913825 C0.619450645,2.2662133 0.925038675,1.66353808 1.42503438,1.24989454 C1.92503008,0.836251007 2.57448631,0.64882366 3.21812289,0.732425 C4.68734098,0.732425 5.7218466,1.5545625 5.7218466,2.7380375 C5.72894781,3.55505236 5.16399504,4.26597712 4.36618401,4.443975 L4.36618401,4.5318625 C5.32167798,4.57422239 6.0633939,5.38021762 6.02593273,6.33545 C5.95731829,7.00181919 5.62312381,7.61249854 5.09875423,8.02969933 C4.57438465,8.44690011 3.90402166,8.63547032 3.23892055,8.5528625 C2.57231127,8.64370117 1.89737939,8.4599902 1.36889853,8.0438577 C0.840417677,7.62772521 0.503727932,7.01487254 0.436038117,6.3458375 L1.54864441,6.3458375 C1.61581474,7.0593375 2.27166029,7.5195875 3.23892055,7.5195875 C4.20618081,7.5195875 4.83760192,7.002625 4.83760192,6.2738625 C4.83760192,5.534725 4.24282372,5.0794 3.20350324,5.0794 L2.17393753,5.0794 L2.17393753,4.066775 Z" id="Shape"></path>
                            <path d="M7.28996303,6.7804 C7.28996303,5.7672125 8.04594502,5.1831125 9.38448675,5.1001 L10.9098948,5.0122125 L10.9098948,4.526375 C10.9098948,3.9318875 10.5178532,3.5962 9.75699381,3.5962 C9.13657808,3.5962 8.70789356,3.8238625 8.58332017,4.2218125 L7.50735678,4.2218125 C7.6209373,3.2550125 8.5320326,2.6349 9.80950698,2.6349 C11.2213345,2.6349 12.0176237,3.3374 12.0176237,4.526375 L12.0176237,8.3722 L10.9465377,8.3722 L10.9465377,7.5811875 L10.8586072,7.5811875 C10.4952404,8.15884542 9.84905587,8.49645404 9.1671055,8.4649375 C8.68904199,8.51463977 8.21225275,8.35988833 7.85460877,8.03894056 C7.49696479,7.71799279 7.29184656,7.26080414 7.28996303,6.7804 Z M10.9098948,6.2994375 L10.9098948,5.8288625 L9.53466015,5.91675 C8.7591311,5.968625 8.40739669,6.2323 8.40739669,6.7285125 C8.40739669,7.2351 8.84706158,7.5299 9.45165708,7.5299 C9.80957272,7.56612675 10.1668734,7.45561482 10.4417615,7.22366399 C10.7166496,6.99171315 10.8855856,6.65818593 10.9098948,6.2994375 Z" id="Shape"></path>
                            <polygon id="Shape" points="14.9670528 3.6785875 14.9670528 8.3721875 13.8556721 8.3721875 13.8556721 2.743525 17.5635844 2.743525 17.5635844 3.678525"></polygon>
                            <path d="M24.2990139,5.555425 C24.2990139,7.34375 23.394034,8.464975 21.9724392,8.464975 C21.2599468,8.51361394 20.5839055,8.14480458 20.2394172,7.5195375 L20.1514742,7.5195375 L20.1514742,10.2435375 L19.0400935,10.2435375 L19.0400935,2.7435375 L20.1099539,2.7435375 L20.1099539,3.67375 L20.193007,3.67375 C20.5432042,3.02750664 21.2263616,2.63209908 21.9614463,2.6501875 C23.3940215,2.65015 24.2990139,3.766475 24.2990139,5.555425 Z M23.1558801,5.555425 C23.1558801,4.3664625 22.592855,3.648075 21.6512447,3.648075 C20.7157875,3.648075 20.1307266,4.3817125 20.1307266,5.5603125 C20.1307266,6.7334125 20.715725,7.4676625 21.6463548,7.4676625 C22.592855,7.46765 23.1558801,6.7492625 23.1558801,5.555425 Z" id="Shape"></path>
                            <path d="M25.7792248,10.3881875 L25.7792248,9.4317625 C25.8994932,9.4470378 26.0206754,9.45397105 26.1419021,9.4525125 C26.6322235,9.48881361 27.0712261,9.15024997 27.1604624,8.6669875 L27.2435155,8.3929375 L25.2051692,2.743525 L26.4154733,2.743525 L27.8273509,7.21435 L27.9152813,7.21435 L29.322219,2.743525 L30.50077,2.743525 L28.4013814,8.6047375 C27.9201837,9.9743625 27.3876985,10.413825 26.2396749,10.413825 C26.146842,10.4138125 25.8830381,10.4034375 25.7792248,10.3881875 Z" id="Shape"></path>
                            <path d="M31.3666682,6.7749 L32.4731715,6.7749 C32.5818622,7.27115 33.0472021,7.5299 33.6981328,7.5299 C34.4382445,7.5299 34.8925665,7.203975 34.8925665,6.6974 C34.8925665,6.1548 34.4846547,5.8960125 33.6981328,5.8960125 L32.8554334,5.8960125 L32.8554334,5.032975 L33.6834756,5.032975 C34.3551914,5.032975 34.6971585,4.7748 34.6971585,4.304225 C34.6971585,3.8910125 34.3661843,3.575475 33.6834756,3.575475 C33.0618343,3.575475 32.6075122,3.83915 32.5354145,4.2834875 L31.4643785,4.2834875 C31.6309582,3.22132201 32.6178867,2.48813491 33.6834756,2.634925 C35.0220173,2.634925 35.7877791,3.2397875 35.7877791,4.1907125 C35.8006585,4.73642764 35.4299995,5.21682836 34.8986695,5.3430625 L34.8986695,5.43095 C35.5340322,5.51286399 36.0074683,6.05715199 36.0002829,6.697425 C36.0002829,7.767425 35.0891876,8.475375 33.6981328,8.475375 C32.4682817,8.4753375 31.4692684,7.9119875 31.3666682,6.7749 Z" id="Shape"></path>
                            <polygon id="Shape" points="37.6008027 8.3721875 37.6008027 2.743525 38.7024161 2.743525 38.7024161 6.615 38.7903466 6.615 41.3856151 2.7435375 42.4872285 2.7435375 42.4872285 8.3722 41.3856151 8.3722 41.3856151 4.48 41.302562 4.48 38.7024161 8.3722125"></polygon>
                            <polygon id="Shape" points="48.5558571 3.6785875 46.7824903 3.6785875 46.7824903 8.3721875 45.669884 8.3721875 45.669884 3.6785875 43.8965173 3.6785875 43.8965173 2.7435875 48.5558571 2.7435875"></polygon>
                            <path d="M54.5426707,6.8524125 C54.2301238,7.91403009 53.2020441,8.59976413 52.10129,8.480825 C51.3503753,8.50063832 50.6287046,8.18953729 50.1277553,7.63006493 C49.626806,7.07059256 49.3972223,6.31930941 49.4999185,5.57555 C49.3999539,4.82972559 49.6286792,4.07724217 50.1268385,3.51304619 C50.6249977,2.94885022 51.3435721,2.62845844 52.0964001,2.634875 C53.6633284,2.634875 54.609841,3.704875 54.609841,5.472375 L54.609841,5.86 L50.6332975,5.86 L50.6332975,5.92225 C50.5976864,6.34002449 50.7402611,6.75340086 51.0258799,7.06049055 C51.3114986,7.36758025 51.7135931,7.5398177 52.1330555,7.53475 C52.6764051,7.59968756 53.2051753,7.3301259 53.4715972,6.852375 L54.5426707,6.8524125 Z M50.6332599,5.03845 L53.4764496,5.03845 C53.5048429,4.65664637 53.3706503,4.28060485 53.1069234,4.00294409 C52.8431965,3.72528333 52.474447,3.57181021 52.0914977,3.580325 C51.7030516,3.57504175 51.3289761,3.72698895 51.0543379,4.00161299 C50.7796997,4.27623704 50.6278418,4.65019614 50.6332975,5.03845 L50.6332599,5.03845 Z" id="Shape"></path>
                            <path d="M59.2544486,2.743525 L61.7935271,2.743525 C62.8951405,2.743525 63.5412063,3.3013875 63.5412063,4.174775 C63.5447361,4.74591337 63.1480411,5.24166749 62.5898163,5.3637375 L62.5898163,5.451625 C63.2728295,5.4947569 63.8022511,6.06524643 63.7940174,6.7492375 C63.7940174,7.7312875 63.0551312,8.3721625 61.8191772,8.3721625 L59.2544486,8.3721625 L59.2544486,2.743525 Z M60.356062,3.596175 L60.356062,5.0536875 L61.4576755,5.0536875 C62.1293913,5.0536875 62.4505983,4.7955125 62.4505983,4.3194375 C62.4505983,3.8806 62.1709241,3.596175 61.5810358,3.596175 L60.356062,3.596175 Z M60.356062,5.8703625 L60.356062,7.5195375 L61.6738936,7.5195375 C62.3309523,7.5195375 62.6826867,7.229625 62.6826867,6.6974 C62.6826867,6.13405 62.2845421,5.870375 61.5346256,5.870375 L60.356062,5.8703625 Z" id="Shape"></path>
                        </g>
                    </g>
                </g>
            </g>
        </g>
    </g>
</svg>